<?xml version="1.0" encoding="UTF-8" standalone="no"?>
<svg width="368px" height="325px" viewBox="0 0 368 325" version="1.1" xmlns="http://www.w3.org/2000/svg" xmlns:xlink="http://www.w3.org/1999/xlink" xmlns:sketch="http://www.bohemiancoding.com/sketch/ns">
    <!-- Generator: Sketch 3.4.4 (17249) - http://www.bohemiancoding.com/sketch -->
    <title>iDEAL fc</title>
    <desc>Created with Sketch.</desc>
    <defs>
        <path id="path-1" d="M0.06,0.613 L367.975,0.613 L367.975,324.94 L0.06,324.94"></path>
    </defs>
    <g id="Page-1" stroke="none" stroke-width="1" fill="none" fill-rule="evenodd" sketch:type="MSPage">
        <g id="Artboard-1" sketch:type="MSArtboardGroup">
            <g id="iDEAL-fc" sketch:type="MSLayerGroup">
                <g id="Group-3">
                    <mask id="mask-2" sketch:name="Clip 2" fill="white">
                        <use xlink:href="#path-1"></use>
                    </mask>
                    <g id="Clip-2"></g>
                    <path d="M0,0.613 L0,325 L189.124,325 C313.881,325 367.975,255.133 367.975,162.485 C367.975,70.203 313.881,0.613 189.124,0.613 L0,0.613" id="Fill-1" fill="#FFFFFF" sketch:type="MSShapeGroup" mask="url(#mask-2)"></path>
                </g>
                <path d="M36.838,37.425 L36.838,288.159 L189.174,288.159 C281.164,288.159 331.205,245.31 331.205,162.472 C331.205,77.342 276.962,37.425 189.174,37.425 L36.838,37.425 L36.838,37.425 Z M189.174,24.411 C324.076,24.411 344.218,110.917 344.218,162.472 C344.218,251.919 289.16,301.179 189.174,301.179 L23.822,301.179 L23.822,24.411 L189.174,24.411 L189.174,24.411 Z" id="Fill-4" fill="#1A1918" sketch:type="MSShapeGroup"></path>
                <path d="M57.276,180.907 L106.042,180.907 L106.042,267.72 L57.276,267.72 L57.276,180.907 Z" id="Fill-5" fill="#1A1918" sketch:type="MSShapeGroup"></path>
                <path d="M111.963,137.181 C111.963,153.921 98.397,167.493 81.656,167.493 C64.923,167.493 51.345,153.921 51.345,137.181 C51.345,120.452 64.923,106.874 81.656,106.874 C98.397,106.874 111.963,120.452 111.963,137.181" id="Fill-6" fill="#1A1918" sketch:type="MSShapeGroup"></path>
                <path d="M130.59,123.073 L130.59,151.365 L139.273,151.365 C145.29,151.365 150.848,149.626 150.848,136.997 C150.848,124.655 144.663,123.073 139.273,123.073 L130.59,123.073 L130.59,123.073 Z M275.453,109.001 L289.5,109.001 L289.5,151.365 L310.316,151.365 C304.607,74.495 244.134,57.888 189.186,57.888 L130.602,57.888 L130.602,109.03 L139.273,109.03 C155.083,109.03 164.906,119.751 164.906,136.997 C164.906,154.79 155.319,165.411 139.273,165.411 L130.602,165.411 L130.602,267.745 L189.186,267.745 C278.527,267.745 309.617,226.257 310.714,165.411 L275.453,165.411 L275.453,109.001 L275.453,109.001 Z M236.314,140.478 L246.476,140.478 L241.83,124.53 L240.986,124.53 L236.314,140.478 L236.314,140.478 Z M214.392,165.429 L231.404,108.999 L251.388,108.999 L268.394,165.429 L253.771,165.429 L250.584,154.513 L232.208,154.513 L229.011,165.429 L214.392,165.429 L214.392,165.429 Z M207.646,151.365 L207.646,165.411 L172.895,165.411 L172.895,109.023 L206.525,109.023 L206.525,123.064 L186.944,123.064 L186.944,129.601 L205.462,129.601 L205.462,143.638 L186.944,143.638 L186.944,151.365 L207.646,151.365 L207.646,151.365 Z" id="Fill-7" fill="#C51473" sketch:type="MSShapeGroup"></path>
            </g>
        </g>
    </g>
</svg>